<svg id="Layer_1" data-name="Layer 1" xmlns="http://www.w3.org/2000/svg" xmlns:xlink="http://www.w3.org/1999/xlink" viewBox="0 0 377.58 391.65"><defs><style>.cls-1{fill:none;}.cls-2{clip-path:url(#clip-path);}.cls-3{fill:#9d41af;}</style><clipPath id="clip-path"><rect class="cls-1" x="-313.12" y="-174.31" width="1000" height="1080"/></clipPath></defs><title>32</title><g class="cls-2"><path class="cls-3" d="M354.52,258.71c-3.8-3.17-7.55-6.43-11.47-9.48-2.17-1.7-1.22-3.48-.68-5.37a162,162,0,0,0,5.74-59.8c-2.38-25.68-10-49.71-24.25-71.11C288,59.24,237.31,34.13,173,39,101.12,44.39,40.44,102.08,29.71,173.1a162.15,162.15,0,0,0,4.45,70.69c.91,3.11.53,4.9-2.22,6.57a38.2,38.2,0,0,0-5.41,4.42c-5.15,4.6-5.13,4.62-7.23-1.78C-4.63,180.19,23.21,97.36,86,53.84c34.84-24.13,73.38-34.53,115.55-32C272,26.17,336.92,77.62,357.38,145.19c11,36.28,11.13,72.47-.48,108.63-.46,1.42-1,2.82-1.54,4.2C355.26,258.29,354.88,258.44,354.52,258.71Z"/><path class="cls-3" d="M188.14,220.94c-26.09,0-46.47-20.57-46.4-46.73a46.49,46.49,0,0,1,46.92-46.4c25.7.14,46.26,21.17,46.18,47.21A46.26,46.26,0,0,1,188.14,220.94Z"/><path class="cls-3" d="M347.32,267.56C329.22,249,307.26,241.34,281.64,244a50.43,50.43,0,0,0-18,4.84c1.61,1.51,2.89,2.76,4.23,3.95,13.8,12.26,24.51,26.8,31.11,44,6.27,16.37,7.35,11.14-6.43,24-2.93,2.75-4.2.91-4.45-1.62a38.36,38.36,0,0,0-1.82-8.07c-10.85-33.4-33.21-55.4-66.32-66.68-13.65-5.2-27.85-6.13-42.17-4.69-22.12,2.22-41.7,10.49-58.11,25.76-17.65,15.09-27.91,34.52-33.11,57.53-4.16-3.55-7.89-6.55-11.4-9.79-2.08-1.92-2.37-4.23-1.4-7.15a124.08,124.08,0,0,1,21.91-40.08c5.11-6.23,11-11.65,17-17.32-27.15-11.57-60.94-4.09-82.45,17.68-3.12,3.16-3.84,5.62-1.73,9.87a179.33,179.33,0,0,0,46.64,59.17c13.41,11,28,20.32,44.39,26.51,1,.53,2,1.16,3.06,1.59a167.81,167.81,0,0,0,51.62,11.92c15,1,30.16,1.15,45-2.48h0a32.88,32.88,0,0,0,3.48-.33c37.74-7.58,69.58-25.78,95.88-53.7a175.47,175.47,0,0,0,29.91-44C350,271.84,349.68,270,347.32,267.56Z"/><path class="cls-3" d="M323.84,199.8a32.48,32.48,0,1,1-65-.32c.16-18.5,14.46-32.24,32.88-32.17A32.22,32.22,0,0,1,323.84,199.8Z"/><path class="cls-3" d="M85.21,232A32,32,0,0,1,52.76,199.9c0-18.39,14.15-32.56,32.56-32.52A32.33,32.33,0,1,1,85.21,232Z"/></g><path class="cls-3" d="M86.77,133.54,92.21,139l-3.37,5.9L68.06,122.87l4.26-7.47L101.95,122l-3.49,6.13-7.57-1.74Zm-.62-8.82-6.24-1.48c-1.75-.4-3.87-1-5.58-1.5l0,.07c1.28,1.23,3,2.69,4.2,3.93L83,130.29Z"/><path class="cls-3" d="M103.42,120.39,82.8,100l5.38-5.45L100,97.76a84,84,0,0,1,10.39,3.61l.09-.09a107.62,107.62,0,0,1-9-8.09l-6-6L99.66,83l20.62,20.36-4.83,4.89-12.31-3.45a107.76,107.76,0,0,1-10.82-3.61l-.06.12c2.84,2.57,5.81,5.38,9.18,8.7l6.21,6.13Z"/><path class="cls-3" d="M115.88,78.16l-6.58,4.16-2.95-4.65,18.82-11.92,2.95,4.65-6.68,4.23L134,94.47,128.45,98Z"/><path class="cls-3" d="M137.63,60.46l11.49,26.61-6,2.61L131.59,63.06Z"/><path class="cls-3" d="M156.49,54.07l6.42-1,2,12.66.13,0c.47-1.2,1-2.33,1.47-3.45l5-10.52,7.95-1.23-7.59,13.66,12.53,14.9-7.56,1.17L167.89,69l-2,3.4,1.45,9.35-6.42,1Z"/><path class="cls-3" d="M211.7,66.67c-.75,9.47-7,14.76-15.39,14.09S183.23,73.2,183.88,65c.69-8.66,6.73-14.69,15.26-14C208,51.67,212.33,58.69,211.7,66.67Zm-20.9-1.27c-.45,5.66,1.89,9.85,6.26,10.2s7.28-3.65,7.72-9.26c.41-5.19-1.72-9.84-6.22-10.2S191.24,59.78,190.79,65.39Z"/><path class="cls-3" d="M221.73,55.07a57.59,57.59,0,0,1,8.51,2c4.1,1.28,6.78,2.8,8.26,5a7.35,7.35,0,0,1,.73,6.58,7.69,7.69,0,0,1-7,5.28l0,.12c1.68,1.38,2.17,3.56,2.07,6.33-.12,3.39-.38,7.27-.18,8.5l-6.4-2a36.23,36.23,0,0,1,.09-7c.34-3.68-.55-5-3.08-5.83l-1.89-.59L219.38,84.3l-6.2-1.94Zm2.47,13.84,2.46.77c3.12,1,5.45,0,6.21-2.43s-.53-4.36-3.39-5.3a16.38,16.38,0,0,0-2.9-.68Z"/><path class="cls-3" d="M256.07,68l-8.44,14.39c-2.52,4.3-2.18,7.45.72,9.14s5.82.62,8.41-3.79l8.44-14.39,5.64,3.31-8.22,14c-4.53,7.71-10.57,9.1-17.1,5.27-6.3-3.7-8-9.36-3.29-17.33l8.18-13.94Z"/><path class="cls-3" d="M279.22,83.78A53.67,53.67,0,0,1,286,89.54c2.89,2.83,4.41,5.39,4.71,7.85a8.48,8.48,0,0,1-2.48,7,9.26,9.26,0,0,1-6.72,3.06c-3.07-.06-6.1-1.69-8.87-4.4a16.77,16.77,0,0,1-1.51-1.66l-7.24,7.41-4.64-4.54Zm-4.56,13.95a10,10,0,0,0,1.45,1.66c2.49,2.43,5.26,2.68,7.33.56,1.86-1.91,1.65-4.34-.68-6.62a11.18,11.18,0,0,0-2.12-1.71Z"/><path class="cls-3" d="M281.37,117.52a16.69,16.69,0,0,0,2.29,7.13c1.58,2.56,3.48,3.25,5.09,2.26s1.69-2.66.91-6.28c-1.11-5-.5-9,3.08-11.27,4.2-2.6,9.59-1.09,13.19,4.72a17.76,17.76,0,0,1,2.65,7.06l-5.26,1.54a13.79,13.79,0,0,0-2-5.88c-1.5-2.41-3.32-2.9-4.59-2.11-1.57,1-1.41,2.79-.64,6.72,1.09,5.35.09,8.8-3.38,10.95-4.13,2.56-9.61,1.55-13.8-5.21a19,19,0,0,1-2.83-7.91Z"/><path class="cls-3" d="M315.62,136l-27.18,10-2.28-6.17,27.18-10Z"/></svg>